<?xml version="1.0" standalone="no"?>
<!DOCTYPE svg PUBLIC "-//W3C//DTD SVG 20010904//EN"
 "http://www.w3.org/TR/2001/REC-SVG-20010904/DTD/svg10.dtd">
<svg version="1.0" xmlns="http://www.w3.org/2000/svg"
 width="274.000000pt" height="274.000000pt" viewBox="0 0 274.000000 274.000000"
 preserveAspectRatio="xMidYMid meet">
<metadata>
Created by potrace 1.14, written by Peter Selinger 2001-2017
</metadata>
<g transform="translate(0.000000,274.000000) scale(0.100000,-0.100000)"
fill="#000000" stroke="none">
<path d="M0 1370 l0 -1370 1370 0 1370 0 0 1370 0 1370 -1370 0 -1370 0 0
-1370z m1300 25 l0 -1085 -155 0 -154 0 -3 64 -3 65 -60 -50 c-33 -28 -77 -59
-98 -70 -87 -45 -219 -43 -303 6 -116 67 -195 243 -225 496 -16 140 -7 563 15
682 33 179 100 293 203 343 51 26 69 29 153 29 84 0 101 -3 146 -27 28 -15 76
-50 107 -77 30 -28 58 -51 61 -51 3 0 6 171 6 380 l0 380 155 0 155 0 0 -1085z
m470 461 c0 -2 16 -87 34 -188 19 -100 67 -356 106 -568 39 -211 73 -386 74
-388 6 -5 10 21 107 596 l93 552 149 0 c137 0 149 -1 145 -17 -2 -10 -80 -359
-173 -775 l-170 -758 -156 0 -157 0 -7 28 c-10 40 -200 882 -241 1067 -19 88
-48 220 -65 294 -16 73 -29 140 -29 147 0 11 29 14 145 14 80 0 145 -2 145 -4z"/>
<path d="M716 1619 c-43 -12 -73 -46 -93 -103 -16 -45 -18 -91 -18 -406 0
-380 5 -425 51 -506 14 -24 36 -47 54 -54 39 -16 145 -7 220 18 l55 19 3 486
2 486 -22 15 c-56 36 -197 61 -252 45z"/>
</g>
</svg>
